<svg width="21" height="21" viewBox="0 0 21 21" xmlns="http://www.w3.org/2000/svg">
    <path d="M12.1155 16.5656C12.3807 16.5656 12.6351 16.4602 12.8226 16.2727C13.0102 16.0851 13.1155 15.8308 13.1155 15.5656V13.5656C13.1155 13.3004 13.0102 13.046 12.8226 12.8585C12.6351 12.6709 12.3807 12.5656 12.1155 12.5656C11.8503 12.5656 11.5959 12.6709 11.4084 12.8585C11.2209 13.046 11.1155 13.3004 11.1155 13.5656V15.5656C11.1155 15.8308 11.2209 16.0851 11.4084 16.2727C11.5959 16.4602 11.8503 16.5656 12.1155 16.5656ZM8.11552 16.5656C8.38073 16.5656 8.63509 16.4602 8.82262 16.2727C9.01016 16.0851 9.11552 15.8308 9.11552 15.5656V13.5656C9.11552 13.3004 9.01016 13.046 8.82262 12.8585C8.63509 12.6709 8.38073 12.5656 8.11552 12.5656C7.8503 12.5656 7.59595 12.6709 7.40841 12.8585C7.22087 13.046 7.11552 13.3004 7.11552 13.5656V15.5656C7.11552 15.8308 7.22087 16.0851 7.40841 16.2727C7.59595 16.4602 7.8503 16.5656 8.11552 16.5656ZM17.1155 4.56558H15.7355L14.0055 1.11558C13.9527 0.988632 13.8742 0.873953 13.775 0.778707C13.6758 0.683461 13.558 0.609696 13.4291 0.562021C13.3001 0.514346 13.1626 0.493786 13.0253 0.501627C12.8881 0.509467 12.7539 0.545539 12.6311 0.607587C12.5084 0.669636 12.3998 0.756329 12.3121 0.862247C12.2244 0.968166 12.1595 1.09103 12.1214 1.22317C12.0834 1.35531 12.073 1.49388 12.0909 1.63023C12.1088 1.76657 12.1546 1.89775 12.2255 2.01558L13.4955 4.56558H6.73552L8.00552 2.01558C8.10258 1.78249 8.10788 1.5213 8.02034 1.28447C7.9328 1.04763 7.75891 0.852676 7.53358 0.738745C7.30825 0.624813 7.04816 0.60034 6.80553 0.670238C6.5629 0.740136 6.3557 0.89923 6.22552 1.11558L4.49552 4.56558H3.11552C2.4087 4.57633 1.72839 4.83633 1.19456 5.29971C0.660738 5.7631 0.307689 6.4001 0.197686 7.09839C0.0876826 7.79667 0.227791 8.51136 0.593301 9.11643C0.958811 9.72149 1.52624 10.178 2.19552 10.4056L2.93552 17.8656C3.01014 18.6081 3.35886 19.2962 3.91359 19.7955C4.46832 20.2948 5.18922 20.5693 5.93552 20.5656H14.3155C15.0618 20.5693 15.7827 20.2948 16.3374 19.7955C16.8922 19.2962 17.2409 18.6081 17.3155 17.8656L18.0555 10.4056C18.7262 10.1774 19.2946 9.71915 19.6598 9.11206C20.0251 8.50498 20.1637 7.78821 20.0511 7.08872C19.9385 6.38923 19.582 5.75217 19.0447 5.29035C18.5074 4.82854 17.824 4.57179 17.1155 4.56558ZM15.3055 17.6656C15.2806 17.9131 15.1644 18.1425 14.9795 18.3089C14.7946 18.4753 14.5543 18.5668 14.3055 18.5656H5.92552C5.67675 18.5668 5.43645 18.4753 5.25154 18.3089C5.06663 18.1425 4.95039 17.9131 4.92552 17.6656L4.21552 10.5656L16.0155 10.5656L15.3055 17.6656ZM17.1155 8.56558L3.11552 8.56558C2.8503 8.56558 2.59595 8.46022 2.40841 8.27269C2.22087 8.08515 2.11552 7.8308 2.11552 7.56558C2.11552 7.30036 2.22087 7.04601 2.40841 6.85847C2.59595 6.67094 2.8503 6.56558 3.11552 6.56558L17.1155 6.56558C17.3807 6.56558 17.6351 6.67094 17.8226 6.85847C18.0102 7.04601 18.1155 7.30036 18.1155 7.56558C18.1155 7.8308 18.0102 8.08515 17.8226 8.27269C17.6351 8.46022 17.3807 8.56558 17.1155 8.56558Z" />
</svg>
