<svg width="0" height="0"><symbol xmlns="http://www.w3.org/2000/svg" id="cart" fill="none" viewBox="0 0 25 17"><g clip-path="url(#a)"><path fill="currentColor" d="M3.832 2H0V0h6.462l.66 4h16.407v5.938L5.543 12.37 3.833 2Zm18.962 15c-1.218 0-2.206-.672-2.206-1.5s.988-1.5 2.206-1.5S25 14.672 25 15.5s-.988 1.5-2.206 1.5ZM8.088 17c-1.218 0-2.206-.672-2.206-1.5S6.87 14 8.088 14c1.219 0 2.206.672 2.206 1.5S9.307 17 8.088 17Z"/></g><defs><clipPath id="a"><path fill="currentColor" d="M0 0h25v17H0z"/></clipPath></defs></symbol><symbol xmlns="http://www.w3.org/2000/svg" id="test" viewBox="0 0 512 512"><path d="m239.1 6.3-208 78c-18.7 7-31.1 25-31.1 45v225.1c0 18.2 10.3 34.8 26.5 42.9l208 104c13.5 6.8 29.4 6.8 42.9 0l208-104c16.3-8.1 26.5-24.8 26.5-42.9V129.3c0-20-12.4-37.9-31.1-44.9l-208-78C262 2.2 250 2.2 239.1 6.3zM256 68.4l192 72v1.1l-192 78-192-78v-1.1l192-72zm32 356V275.5l160-65v133.9l-160 80z"/></symbol></svg>