<svg width="0" height="0"><symbol xmlns="http://www.w3.org/2000/svg" id="cart" viewBox="0 0 21 21"><path d="M12.116 16.566a1 1 0 0 0 1-1v-2a1 1 0 1 0-2 0v2a1 1 0 0 0 1 1Zm-4 0a1 1 0 0 0 1-1v-2a1 1 0 1 0-2 0v2a1 1 0 0 0 1 1Zm9-12h-1.38l-1.73-3.45a.999.999 0 1 0-1.78.9l1.27 2.55h-6.76l1.27-2.55a1 1 0 0 0-1.78-.9l-1.73 3.45h-1.38a3 3 0 0 0-.92 5.84l.74 7.46a3 3 0 0 0 3 2.7h8.38a3 3 0 0 0 3-2.7l.74-7.46a3 3 0 0 0-.94-5.84Zm-1.81 13.1a1 1 0 0 1-1 .9h-8.38a1 1 0 0 1-1-.9l-.71-7.1h11.8l-.71 7.1Zm1.81-9.1h-14a1 1 0 0 1 0-2h14a1 1 0 1 1 0 2Z"/></symbol><symbol xmlns="http://www.w3.org/2000/svg" id="close" fill="none" viewBox="0 0 22 22"><path fill="currentColor" d="M5.2 6.167a.684.684 0 0 1 .967-.967L11 10.033 15.833 5.2a.683.683 0 1 1 .967.967L11.967 11l4.833 4.833a.684.684 0 0 1-.967.967L11 11.967 6.167 16.8a.684.684 0 0 1-.967-.967L10.033 11 5.2 6.167Z"/></symbol><symbol xmlns="http://www.w3.org/2000/svg" id="inst" fill="none" viewBox="0 0 18 18"><g clip-path="url(#a)"><path fill="currentColor" d="M11.99 9a2.953 2.953 0 0 0-.878-2.118 2.949 2.949 0 0 0-2.106-.875 2.948 2.948 0 0 0-2.118.874 2.95 2.95 0 0 0-.873 2.118 2.95 2.95 0 0 0 2.987 2.988 2.947 2.947 0 0 0 2.106-.874 2.948 2.948 0 0 0 .877-2.118L11.99 9Zm1.626 0a4.636 4.636 0 0 1-1.356 3.266 4.633 4.633 0 0 1-3.258 1.352 4.634 4.634 0 0 1-3.265-1.355A4.636 4.636 0 0 1 4.38 8.997 4.633 4.633 0 0 1 9 4.375a4.634 4.634 0 0 1 3.265 1.355 4.636 4.636 0 0 1 1.353 3.266L13.616 9Zm1.263-4.798c-.002.286-.115.56-.316.764a1.034 1.034 0 0 1-.763.3 1.034 1.034 0 0 1-1.065-1.064 1.036 1.036 0 0 1 .652-.994 1.04 1.04 0 0 1 .413-.071 1.034 1.034 0 0 1 .763.301c.2.204.313.477.316.763ZM9.002 1.629a90.223 90.223 0 0 0-2.7 0 8.447 8.447 0 0 0-2.6.362c-.192.076-.377.17-.552.281a2.875 2.875 0 0 0-.482.392 2.876 2.876 0 0 0-.392.482c-.111.175-.205.36-.281.552a8.453 8.453 0 0 0-.362 2.6A194.247 194.247 0 0 0 1.61 9c0 .724.007 1.624.02 2.701-.015.882.108 1.76.365 2.603a2.876 2.876 0 0 0 .673 1.034 2.885 2.885 0 0 0 1.034.673c.842.256 1.72.378 2.6.362 1.076.014 1.976.02 2.7.02.723 0 1.623-.006 2.7-.02a8.447 8.447 0 0 0 2.6-.361c.192-.076.376-.17.551-.281a2.87 2.87 0 0 0 .482-.392c.148-.146.28-.308.392-.483.111-.175.205-.36.281-.552.256-.842.377-1.72.362-2.6.013-1.077.02-1.977.02-2.7 0-.724-.007-1.626-.021-2.706a8.454 8.454 0 0 0-.362-2.6 3.29 3.29 0 0 0-.28-.552 2.878 2.878 0 0 0-.393-.482 2.876 2.876 0 0 0-.482-.392 3.28 3.28 0 0 0-.552-.281 8.447 8.447 0 0 0-2.6-.362 90.133 90.133 0 0 0-2.698 0Zm8.994 7.374a69.305 69.305 0 0 1-.06 3.715 7.077 7.077 0 0 1-.361 2.028 4.474 4.474 0 0 1-1.104 1.723 4.473 4.473 0 0 1-1.727 1.1 7.067 7.067 0 0 1-2.028.362 62.706 62.706 0 0 1-3.714.06 65.182 65.182 0 0 1-3.715-.055 7.07 7.07 0 0 1-2.027-.366 4.472 4.472 0 0 1-1.73-1.1 4.473 4.473 0 0 1-1.105-1.727 7.074 7.074 0 0 1-.36-2.028A67.72 67.72 0 0 1 .004 9C-.01 7.768.01 6.53.064 5.286a7.07 7.07 0 0 1 .36-2.028A4.474 4.474 0 0 1 1.53 1.53 4.473 4.473 0 0 1 3.255.426 7.07 7.07 0 0 1 5.283.065a69.173 69.173 0 0 1 3.713-.06 69.91 69.91 0 0 1 3.714.06 7.06 7.06 0 0 1 2.027.361c.652.23 1.242.607 1.723 1.103a4.474 4.474 0 0 1 1.104 1.727c.219.655.34 1.338.361 2.028a67.02 67.02 0 0 1 .062 3.715l.009.004Z" opacity=".5"/></g><defs><clipPath id="a"><path fill="currentColor" d="M0 0h18v18H0z"/></clipPath></defs></symbol><symbol xmlns="http://www.w3.org/2000/svg" id="test" viewBox="0 0 512 512"><path d="m239.1 6.3-208 78c-18.7 7-31.1 25-31.1 45v225.1c0 18.2 10.3 34.8 26.5 42.9l208 104c13.5 6.8 29.4 6.8 42.9 0l208-104c16.3-8.1 26.5-24.8 26.5-42.9V129.3c0-20-12.4-37.9-31.1-44.9l-208-78C262 2.2 250 2.2 239.1 6.3zM256 68.4l192 72v1.1l-192 78-192-78v-1.1l192-72zm32 356V275.5l160-65v133.9l-160 80z"/></symbol><symbol xmlns="http://www.w3.org/2000/svg" id="twitter" fill="none" viewBox="0 0 18 15"><path fill="currentColor" d="M18 1.782a7.467 7.467 0 0 1-2.121.595A3.82 3.82 0 0 0 17.508.271a7.156 7.156 0 0 1-2.356.92 3.692 3.692 0 0 0-1.199-.876A3.526 3.526 0 0 0 12.46 0a3.586 3.586 0 0 0-1.414.286 3.768 3.768 0 0 0-1.999 2.05c-.186.46-.28.954-.279 1.451 0 .291.031.581.092.866A10.362 10.362 0 0 1 4.59 3.47 10.539 10.539 0 0 1 1.253.686a4.053 4.053 0 0 0-.492 1.911 3.774 3.774 0 0 0 1.636 3.159A3.594 3.594 0 0 1 .72 5.283v.036c.003.88.302 1.733.847 2.414.54.67 1.289 1.13 2.12 1.299a3.333 3.333 0 0 1-1.667.076 3.73 3.73 0 0 0 1.29 1.867 3.7 3.7 0 0 0 2.154.766A7.499 7.499 0 0 1 .872 13.36c-.292 0-.583-.02-.873-.055.826.544 1.723.966 2.663 1.253.973.297 1.983.446 2.997.442 3.411-.132 6.013-1.3 7.806-3.508a11.36 11.36 0 0 0 2.706-7.275c0-.157-.006-.32-.017-.488a7.787 7.787 0 0 0 1.844-1.943L18 1.782Z" opacity=".5"/></symbol><symbol xmlns="http://www.w3.org/2000/svg" id="yt" fill="none" viewBox="0 0 18 13"><path fill="currentColor" d="M17.613 2.048c.188.912.296 1.838.325 2.77.041 1.03.062 1.593.062 1.69 0 .096-.02.66-.062 1.69a16.316 16.316 0 0 1-.325 2.77 2.55 2.55 0 0 1-.587 1.037 2.106 2.106 0 0 1-1.012.602c-1.332.218-2.678.33-4.027.333-1.783.042-2.78.063-2.99.063-.212 0-1.209-.021-2.992-.063a25.259 25.259 0 0 1-4.026-.333 2.105 2.105 0 0 1-1.013-.602 2.55 2.55 0 0 1-.579-1.038 16.314 16.314 0 0 1-.326-2.769C.02 7.168 0 6.604 0 6.508c0-.097.02-.66.062-1.69.03-.932.138-1.858.325-2.77.11-.39.311-.747.588-1.038A2.144 2.144 0 0 1 1.987.417a23.52 23.52 0 0 1 4.026-.35C7.797.023 8.793.002 9.005.002c.21 0 1.208.021 2.99.063a23.52 23.52 0 0 1 4.027.351c.385.099.735.304 1.013.593.275.292.476.648.584 1.038h-.006ZM7.157 9.241l4.704-2.736-4.704-2.748V9.24Z" opacity=".5"/></symbol></svg>