<svg width="0" height="0"><symbol xmlns="http://www.w3.org/2000/svg" id="cart" viewBox="0 0 21 21"><path d="M12.116 16.566a1 1 0 0 0 1-1v-2a1 1 0 1 0-2 0v2a1 1 0 0 0 1 1Zm-4 0a1 1 0 0 0 1-1v-2a1 1 0 1 0-2 0v2a1 1 0 0 0 1 1Zm9-12h-1.38l-1.73-3.45a.999.999 0 1 0-1.78.9l1.27 2.55h-6.76l1.27-2.55a1 1 0 0 0-1.78-.9l-1.73 3.45h-1.38a3 3 0 0 0-.92 5.84l.74 7.46a3 3 0 0 0 3 2.7h8.38a3 3 0 0 0 3-2.7l.74-7.46a3 3 0 0 0-.94-5.84Zm-1.81 13.1a1 1 0 0 1-1 .9h-8.38a1 1 0 0 1-1-.9l-.71-7.1h11.8l-.71 7.1Zm1.81-9.1h-14a1 1 0 0 1 0-2h14a1 1 0 1 1 0 2Z"/></symbol><symbol xmlns="http://www.w3.org/2000/svg" id="test" viewBox="0 0 512 512"><path d="m239.1 6.3-208 78c-18.7 7-31.1 25-31.1 45v225.1c0 18.2 10.3 34.8 26.5 42.9l208 104c13.5 6.8 29.4 6.8 42.9 0l208-104c16.3-8.1 26.5-24.8 26.5-42.9V129.3c0-20-12.4-37.9-31.1-44.9l-208-78C262 2.2 250 2.2 239.1 6.3zM256 68.4l192 72v1.1l-192 78-192-78v-1.1l192-72zm32 356V275.5l160-65v133.9l-160 80z"/></symbol></svg>